<?xml version="1.0" encoding="UTF-8"?>
<svg width="11px" height="21px" viewBox="0 0 11 21" version="1.1" xmlns="http://www.w3.org/2000/svg" xmlns:xlink="http://www.w3.org/1999/xlink">
    <!-- Generator: Sketch 48.2 (47327) - http://www.bohemiancoding.com/sketch -->
    <title>arrow-right</title>
    <desc>Created with Sketch.</desc>
    <defs></defs>
    <g id="recurso-home" stroke="none" stroke-width="1" fill="none" fill-rule="evenodd" transform="translate(-443.000000, -48.000000)">
        <path d="M444.266429,68.25 C444.181426,68.25 444.099459,68.2337082 444.020527,68.2011241 C443.941596,68.1685401 443.871772,68.1196647 443.811056,68.0544966 C443.689622,67.9241603 443.628906,67.7677591 443.628906,67.5852884 C443.628906,67.4028176 443.689622,67.2464164 443.811056,67.1160802 L452.135281,58.1815738 L443.93856,49.4034702 C443.817127,49.2731339 443.756411,49.1134744 443.756411,48.9244868 C443.756411,48.7354992 443.817127,48.5758397 443.93856,48.4455034 C444.059994,48.3151672 444.208748,48.25 444.384826,48.25 C444.560905,48.25 444.709659,48.3151672 444.831092,48.4455034 L453.446757,57.7123656 C453.56819,57.8427019 453.628906,57.999103 453.628906,58.1815738 C453.628906,58.3640446 453.56819,58.5204457 453.446757,58.650782 L444.703587,68.0544966 C444.642871,68.1196647 444.573048,68.1685401 444.494116,68.2011241 C444.415184,68.2337082 444.339289,68.25 444.266429,68.25 Z" id="arrow-right" fill="#A6B5CB"></path>
    </g>
</svg>